<?xml version="1.0" standalone="no"?><!DOCTYPE svg PUBLIC "-//W3C//DTD SVG 1.1//EN" "http://www.w3.org/Graphics/SVG/1.1/DTD/svg11.dtd"><svg t="1774512706186" class="icon" viewBox="0 0 1024 1024" version="1.1" xmlns="http://www.w3.org/2000/svg" p-id="1470" xmlns:xlink="http://www.w3.org/1999/xlink" width="200" height="200"><path d="M366.5 649.5h107v244h-107z" fill="#A5855E" p-id="1471"></path><path d="M473.5 906h-107c-6.9 0-12.5-5.6-12.5-12.5v-244c0-6.9 5.6-12.5 12.5-12.5h107c6.9 0 12.5 5.6 12.5 12.5v244c0 6.9-5.6 12.5-12.5 12.5zM379 881h82V662h-82v219z" p-id="1472"></path><path d="M419.5 429.5m-288.5 0a288.5 288.5 0 1 0 577 0 288.5 288.5 0 1 0-577 0Z" fill="#C5E298" p-id="1473"></path><path d="M419.5 730.5c-80.4 0-155.99-31.31-212.84-88.16-56.85-56.85-88.16-132.44-88.16-212.84s31.31-155.99 88.16-212.84c56.85-56.85 132.44-88.16 212.84-88.16s155.99 31.31 212.84 88.16c56.85 56.85 88.16 132.44 88.16 212.84s-31.31 155.99-88.16 212.84S499.9 730.5 419.5 730.5z m0-577c-73.72 0-143.03 28.71-195.16 80.84-52.13 52.13-80.84 121.44-80.84 195.16s28.71 143.03 80.84 195.16c52.13 52.13 121.44 80.84 195.16 80.84s143.03-28.71 195.16-80.84c52.13-52.13 80.84-121.44 80.84-195.16s-28.71-143.03-80.84-195.16c-52.13-52.13-121.44-80.84-195.16-80.84zM512 906H327.1c-6.9 0-12.5-5.6-12.5-12.5s5.6-12.5 12.5-12.5H512c6.9 0 12.5 5.6 12.5 12.5S518.9 906 512 906z" p-id="1474"></path><path d="M640.13 739.57h84.37V893.5h-84.37z" fill="#A5855E" p-id="1475"></path><path d="M724.5 906h-84.37c-6.9 0-12.5-5.6-12.5-12.5V739.57c0-6.9 5.6-12.5 12.5-12.5h84.37c6.9 0 12.5 5.6 12.5 12.5V893.5c0 6.9-5.6 12.5-12.5 12.5z m-71.87-25H712V752.07h-59.37V881z" p-id="1476"></path><path d="M682 600.79m-182 0a182 182 0 1 0 364 0 182 182 0 1 0-364 0Z" fill="#ABCF78" p-id="1477"></path><path d="M682 795.29c-107.25 0-194.5-87.25-194.5-194.5s87.25-194.5 194.5-194.5 194.5 87.25 194.5 194.5-87.25 194.5-194.5 194.5z m0-364c-93.46 0-169.5 76.04-169.5 169.5s76.04 169.5 169.5 169.5 169.5-76.04 169.5-169.5-76.04-169.5-169.5-169.5z" p-id="1478"></path><path d="M761 906H603.07c-6.9 0-12.5-5.6-12.5-12.5s5.6-12.5 12.5-12.5H761c6.9 0 12.5 5.6 12.5 12.5S767.9 906 761 906z" p-id="1479"></path></svg>