<?xml version="1.0" standalone="no"?><!DOCTYPE svg PUBLIC "-//W3C//DTD SVG 1.1//EN" "http://www.w3.org/Graphics/SVG/1.1/DTD/svg11.dtd"><svg t="1774512693330" class="icon" viewBox="0 0 1024 1024" version="1.1" xmlns="http://www.w3.org/2000/svg" p-id="1306" xmlns:xlink="http://www.w3.org/1999/xlink" width="200" height="200"><path d="M467.5 649.5h107v244h-107z" fill="#A5855E" p-id="1307"></path><path d="M574.5 906h-107c-6.9 0-12.5-5.6-12.5-12.5v-244c0-6.9 5.6-12.5 12.5-12.5h107c6.9 0 12.5 5.6 12.5 12.5v244c0 6.9-5.6 12.5-12.5 12.5zM480 881h82V662h-82v219z" p-id="1308"></path><path d="M520.5 429.5m-288.5 0a288.5 288.5 0 1 0 577 0 288.5 288.5 0 1 0-577 0Z" fill="#ABCF78" p-id="1309"></path><path d="M520.5 730.5c-80.4 0-155.99-31.31-212.84-88.16-56.85-56.85-88.16-132.44-88.16-212.84s31.31-155.99 88.16-212.84c56.85-56.85 132.44-88.16 212.84-88.16s155.99 31.31 212.84 88.16c56.85 56.85 88.16 132.44 88.16 212.84s-31.31 155.99-88.16 212.84S600.9 730.5 520.5 730.5z m0-577c-73.72 0-143.03 28.71-195.16 80.84S244.5 355.78 244.5 429.5s28.71 143.03 80.84 195.16c52.13 52.13 121.44 80.84 195.16 80.84s143.03-28.71 195.16-80.84c52.13-52.13 80.84-121.44 80.84-195.16s-28.71-143.03-80.84-195.16c-52.13-52.13-121.44-80.84-195.16-80.84z" p-id="1310"></path><path d="M740.26 575.19m-110.81 0a110.81 110.81 0 1 0 221.62 0 110.81 110.81 0 1 0-221.62 0Z" fill="#ABCF78" p-id="1311"></path><path d="M740 698.53c-24.83 0-49.04-7.51-69.9-21.94-27.09-18.74-45.25-46.91-51.16-79.31-12.18-66.89 32.32-131.22 99.22-143.41 32.4-5.9 65.17 1.17 92.25 19.91 27.09 18.74 45.25 46.9 51.16 79.31 5.9 32.4-1.17 65.17-19.91 92.25-18.74 27.09-46.91 45.25-79.31 51.16-7.46 1.36-14.94 2.03-22.36 2.03z m0.47-221.67c-5.92 0-11.88 0.54-17.82 1.62-53.33 9.71-88.81 61-79.1 114.33 4.71 25.83 19.19 48.29 40.78 63.23 21.59 14.94 47.71 20.58 73.55 15.87 25.83-4.71 48.29-19.19 63.23-40.78 14.94-21.59 20.58-47.71 15.87-73.55-4.71-25.83-19.19-48.29-40.78-63.23-16.62-11.5-35.93-17.49-55.72-17.49z" p-id="1312"></path><path d="M231.74 492.81m-110.81 0a110.81 110.81 0 1 0 221.62 0 110.81 110.81 0 1 0-221.62 0Z" fill="#ABCF78" p-id="1313"></path><path d="M231.74 616.12c-67.99 0-123.31-55.32-123.31-123.31S163.75 369.5 231.74 369.5s123.31 55.32 123.31 123.31-55.32 123.31-123.31 123.31z m0-221.62c-54.21 0-98.31 44.1-98.31 98.31s44.1 98.31 98.31 98.31 98.31-44.1 98.31-98.31-44.1-98.31-98.31-98.31z" p-id="1314"></path><path d="M622.03 906H419.07c-6.9 0-12.5-5.6-12.5-12.5s5.6-12.5 12.5-12.5h202.96c6.9 0 12.5 5.6 12.5 12.5s-5.6 12.5-12.5 12.5z" p-id="1315"></path></svg>